<?xml version="1.0" encoding="utf-8" ?><svg xmlns="http://www.w3.org/2000/svg" xmlns:xlink="http://www.w3.org/1999/xlink" width="560" height="528" viewBox="0 0 560 528"><path fill="#173483" d="M1.0319 118.91C7.39473 118.349 15.8245 118.192 22.1948 118.621C26.8057 118.462 31.1775 119.138 35.7304 119.648C111.551 128.142 142.497 205.011 160.063 269.027L164.529 285.471C164.826 286.593 166.155 291.567 166.207 292.457C168.668 299.98 170.812 309.456 173.04 317.255C175.98 327.549 178.875 336.201 182.586 346.303C192.64 375.812 206.24 408.066 235.324 423.219C236.35 423.688 238.084 424.373 238.861 425.086C237.816 427.157 212.873 431.97 209.533 432.06C205.874 432.662 199.982 433.026 196.198 432.905C180.995 433.207 164.053 430.064 151.811 420.578C131.118 404.543 121.571 379.375 113.685 355.282C111.288 347.956 108.266 338.433 107.206 330.909C106.621 328.939 106.419 326.738 105.797 324.717C102.281 313.295 99.6547 301.64 97.2442 289.941C96.1128 284.45 94.2875 278.955 93.2779 273.469C91.9747 269.217 90.598 262.408 89.5258 257.932C87.4039 248.852 84.9976 239.84 82.3106 230.91C69.252 187.814 52.1274 145.012 10.3755 122.68C7.81637 121.801 3.71679 119.969 1.0319 118.91Z"/><defs><linearGradient id="gradient_0" gradientUnits="userSpaceOnUse" x1="164.70416" y1="428.90897" x2="177.12891" y2="342.15976"><stop offset="0" stop-color="#1E60A8"/><stop offset="1" stop-color="#2E9CD0"/></linearGradient></defs><path fill="url(#gradient_0)" d="M107.206 330.909C117.519 335.466 128.267 338.968 139.286 341.362C143.277 342.24 147.935 342.739 151.661 343.673L151.883 344.09C153.643 347.449 155.518 352.055 157.057 355.633C170.439 386.742 198.406 418.636 233.696 424.212L235.324 423.219C236.35 423.688 238.084 424.373 238.861 425.086C237.816 427.157 212.873 431.97 209.533 432.06C205.874 432.662 199.982 433.026 196.198 432.905C180.995 433.207 164.053 430.064 151.811 420.578C131.118 404.543 121.571 379.375 113.685 355.282C111.288 347.956 108.266 338.433 107.206 330.909Z"/><path fill="#205BA4" d="M196.198 432.905C198.693 430.989 206.113 431.87 209.533 432.06C205.874 432.662 199.982 433.026 196.198 432.905Z"/><path fill="#205BA4" d="M22.1948 118.621C26.8057 118.462 31.1775 119.138 35.7304 119.648C111.551 128.142 142.497 205.011 160.063 269.027L164.529 285.471C164.826 286.593 166.155 291.567 166.207 292.457C165.885 294.916 167.855 299.038 166.15 300.885C164.344 301.489 164.836 300.949 163.587 301.036C157.739 301.446 153.504 301.603 149.078 305.354C148.114 302.238 145.012 291.879 143.423 289.751C140.924 283.494 139.072 276.083 136.846 269.654C121.479 225.261 108.265 177.01 69.957 146.388C58.8689 137.525 47.7655 130.1 34.2464 125.376C30.3654 124.019 25.4541 122.613 21.7875 121.004L21.7847 120.645C23.3982 120.076 24.4163 121.715 25.5354 121.214C25.4022 120.463 25.2817 120.106 25.5481 119.355C23.9632 119.359 19.1593 119.47 17.9695 119.071C18.5423 118.728 21.1841 118.709 22.1948 118.621Z"/><path fill="#A0DDF0" d="M93.2779 273.469C93.2997 272.487 93.2487 271.371 93.6106 270.445C93.8111 269.932 94.0363 269.638 94.5118 269.348C96.1866 268.327 98.4887 267.764 100.349 267.1C104.289 265.695 108.309 264.327 112.099 262.548C112.603 262.312 113.739 261.76 113.928 261.169C114.583 259.111 102.889 226.307 101.338 222.408C99.7007 218.357 98.0085 214.33 96.2618 210.326C94.8206 206.994 90.4837 200.196 96.0923 199.519C97.4108 199.359 97.1629 199.506 98.2351 200.243C117.008 235.8 126.722 274.254 139.563 312.119C143.476 323.66 147.247 332.569 151.661 343.673C147.935 342.739 143.277 342.24 139.286 341.362C128.267 338.968 117.519 335.466 107.206 330.909C106.621 328.939 106.419 326.738 105.797 324.717C102.281 313.295 99.6547 301.64 97.2442 289.941C96.1128 284.45 94.2875 278.955 93.2779 273.469Z"/><path fill="#5DCEEC" d="M10.3755 122.68C16.0894 123.341 20.0502 125.556 25.2646 127.96C47.0252 137.989 65.1548 152.311 79.8781 171.222C84.8163 177.565 94.9185 192.812 98.2351 200.243C97.1629 199.506 97.4108 199.359 96.0923 199.519C90.4837 200.196 94.8206 206.994 96.2618 210.326C98.0085 214.33 99.7007 218.357 101.338 222.408C102.889 226.307 114.583 259.111 113.928 261.169C113.739 261.76 112.603 262.312 112.099 262.548C108.309 264.327 104.289 265.695 100.349 267.1C98.4887 267.764 96.1866 268.327 94.5118 269.348C94.0363 269.638 93.8111 269.932 93.6106 270.445C93.2487 271.371 93.2997 272.487 93.2779 273.469C91.9747 269.217 90.598 262.408 89.5258 257.932C87.4039 248.852 84.9976 239.84 82.3106 230.91C69.252 187.814 52.1274 145.012 10.3755 122.68Z"/><defs><linearGradient id="gradient_1" gradientUnits="userSpaceOnUse" x1="158.46132" y1="299.97717" x2="171.25684" y2="348.2775"><stop offset="0" stop-color="#335BA4"/><stop offset="1" stop-color="#879DC5"/></linearGradient></defs><path fill="url(#gradient_1)" d="M143.423 289.751C145.012 291.879 148.114 302.238 149.078 305.354C153.504 301.603 157.739 301.446 163.587 301.036C164.836 300.949 164.344 301.489 166.15 300.885C167.855 299.038 165.885 294.916 166.207 292.457C168.668 299.98 170.812 309.456 173.04 317.255C175.98 327.549 178.875 336.201 182.586 346.303C181.898 346.231 178.215 346.303 177.366 346.3L165.144 346.244C163.089 341.376 160.571 336.625 158.526 331.558C154.693 322.058 150.916 312.568 147.78 302.805C146.499 298.816 144.366 293.711 143.423 289.751Z"/><path fill="#2A91CA" d="M299.28 243.493C300.821 243.373 308.106 243.486 309.487 243.789C315.272 244.326 335.537 246.612 340.552 248.942C344.939 261.365 347.549 273.383 351.334 286.173C363.063 325.802 374.4 374.121 402.255 405.848C406.612 410.81 415.788 417.191 421.45 420.385C423.995 421.373 426.991 422.138 429.645 422.887C423.328 424.688 417.814 427.57 411.235 429.306C389.51 435.035 364.092 436.292 343.995 424.694C326.632 414.674 315.752 397.884 307.638 380.075C305.907 376.276 303.553 370.831 302.483 366.86C302.077 365.375 301.586 363.9 301.064 362.452C298.092 354.221 295.474 346.051 293.177 337.601C291.21 330.378 289.33 323.13 287.54 315.861C285.439 306.967 283.551 297.878 280.948 289.119C277.597 275.045 273.682 261.112 269.212 247.353C273.676 246.132 282.618 244.962 287.211 244.439L287.31 244.573C289.625 243.87 296.978 243.644 299.326 243.789L299.28 243.493Z"/><path fill="#173483" d="M302.483 366.86C305.945 368.13 311.212 369.032 314.865 369.716C326.498 371.894 339.362 373.007 351.195 371.784C352.882 373.197 356.566 379.494 357.98 381.498C370.152 398.751 387.534 412.277 407.919 418.263C410.835 419.119 418.643 422.256 421.45 420.385C423.995 421.373 426.991 422.138 429.645 422.887C423.328 424.688 417.814 427.57 411.235 429.306C389.51 435.035 364.092 436.292 343.995 424.694C326.632 414.674 315.752 397.884 307.638 380.075C305.907 376.276 303.553 370.831 302.483 366.86Z"/><defs><linearGradient id="gradient_2" gradientUnits="userSpaceOnUse" x1="330.58917" y1="293.2247" x2="299.55078" y2="364.83734"><stop offset="0" stop-color="#2463AA"/><stop offset="1" stop-color="#9DBCDF"/></linearGradient></defs><path fill="url(#gradient_2)" d="M280.948 289.119C281.123 287.685 281.844 285.965 281.773 284.195C281.725 282.986 283.084 280.908 284.233 280.177C286.004 280.904 291.727 279.419 292.119 279.691C295.75 282.215 297.887 280.321 301.488 280.775C302.77 281.77 303.527 285.213 304.382 286.938L304.588 286.597C307.376 293.472 309.859 301.622 312.464 308.765C316.361 307.892 318.316 307.613 322.275 307.179C322.373 307.009 322.534 306.767 322.587 306.594C324.163 311.165 326.863 319.604 328.776 323.802C331.515 333.738 338.62 347.138 343.065 356.596C344.269 359.156 351.016 370.453 351.195 371.784C339.362 373.007 326.498 371.894 314.865 369.716C311.212 369.032 305.945 368.13 302.483 366.86C302.077 365.375 301.586 363.9 301.064 362.452C298.092 354.221 295.474 346.051 293.177 337.601C291.21 330.378 289.33 323.13 287.54 315.861C285.439 306.967 283.551 297.878 280.948 289.119Z"/><path fill="#205BA4" d="M269.212 247.353C273.676 246.132 282.618 244.962 287.211 244.439L287.31 244.573C288.053 246.842 289.973 250.508 291.033 252.916C294.737 261.191 298.209 269.568 301.443 278.038C302.106 279.766 304.239 285.081 304.588 286.597L304.382 286.938C303.527 285.213 302.77 281.77 301.488 280.775C297.887 280.321 295.75 282.215 292.119 279.691C291.727 279.419 286.004 280.904 284.233 280.177C283.084 280.908 281.725 282.986 281.773 284.195C281.844 285.965 281.123 287.685 280.948 289.119C277.597 275.045 273.682 261.112 269.212 247.353Z"/><defs><linearGradient id="gradient_3" gradientUnits="userSpaceOnUse" x1="303.17218" y1="243.50035" x2="306.62158" y2="308.54581"><stop offset="0" stop-color="#104A94"/><stop offset="1" stop-color="#3167AB"/></linearGradient></defs><path fill="url(#gradient_3)" d="M287.31 244.573C289.625 243.87 296.978 243.644 299.326 243.789C307.855 264.429 315.614 285.378 322.587 306.594C322.534 306.767 322.373 307.009 322.275 307.179C318.316 307.613 316.361 307.892 312.464 308.765C309.859 301.622 307.376 293.472 304.588 286.597C304.239 285.081 302.106 279.766 301.443 278.038C298.209 269.568 294.737 261.191 291.033 252.916C289.973 250.508 288.053 246.842 287.31 244.573Z"/><path fill="#5DCEEC" d="M299.28 243.493C300.821 243.373 308.106 243.486 309.487 243.789C308.704 245.022 310.146 247.22 310.692 248.618L314.776 259.243C316.669 264.2 333.56 310.931 333.542 313.004C333.217 312.729 326.027 292.072 325.252 290.17C322.89 290.393 321.818 292.822 319.509 293.721C318.97 293.931 319.548 296.187 319.668 296.546C322.322 304.507 324.955 312.482 327.86 320.355C328.17 321.192 328.931 322.904 328.903 323.666L328.776 323.802C326.863 319.604 324.163 311.165 322.587 306.594C315.614 285.378 307.855 264.429 299.326 243.789L299.28 243.493Z"/><defs><linearGradient id="gradient_4" gradientUnits="userSpaceOnUse" x1="278.92545" y1="132.63971" x2="285.04678" y2="0.82695419"><stop offset="0" stop-color="#2CA3DD"/><stop offset="1" stop-color="#3BBEE9"/></linearGradient></defs><path fill="url(#gradient_4)" d="M279.798 0.691879C310.165 0.213405 340.373 5.15559 369.003 15.2862C412.841 30.8145 451.933 57.3875 482.5 92.4373C487.066 97.6035 497.346 109.876 500.284 115.984C496.913 118.085 493.508 118.507 489.974 120.046C486.977 121.351 483.76 123.226 480.808 124.756C478.595 122.643 473.476 115.74 471.284 112.93C466.144 106.341 461.537 101.075 455.683 95.0882C419.612 58.6786 373.155 34.3253 322.691 25.3713C307.936 22.8201 295.276 22.0098 280.48 21.8372C269.014 21.9412 257.493 22.4635 246.232 24.1309C231.547 26.3055 217.108 29.0103 203.519 35.1144C201.248 35.8356 198.004 35.7815 195.839 36.5874C187.067 39.8516 179.157 43.2306 170.764 47.3508C140.901 61.9635 114.364 82.5648 92.8042 107.873C88.4357 113.03 83.817 119.369 79.755 124.823C75.3742 122.867 71.1452 120.717 66.6376 119.047C64.8199 118.373 61.7813 117.355 60.4085 116.067C60.3744 111.589 85.6382 84.1467 89.9932 79.6605C133.356 35.5824 190.8 8.1022 252.331 2.00134C261.633 1.02439 270.47 0.833983 279.798 0.691879Z"/><defs><linearGradient id="gradient_5" gradientUnits="userSpaceOnUse" x1="222.6711" y1="408.73483" x2="246.12419" y2="219.26622"><stop offset="0" stop-color="#1A3385"/><stop offset="1" stop-color="#19529E"/></linearGradient></defs><path fill="url(#gradient_5)" d="M248.762 218.89C251.05 220.295 261.016 250.016 262.395 255.323C264.203 262.278 274.905 293.01 273.177 298.295C261.872 332.867 254.834 369.086 236.612 400.942C234.733 404.228 232.266 407.624 230.178 410.831C227.85 409.42 225.934 407.295 224.019 405.354C211.081 391.859 202.435 374.794 195.58 357.566C194.63 355.178 193.732 352.998 193.131 350.483C194.074 347.373 197.253 340.857 198.743 337.49C201.164 331.932 203.406 326.298 205.466 320.596C209.159 310.641 212.228 300.666 215.682 290.681C220.333 276.953 225.592 263.439 231.444 250.179C235.705 240.534 242.373 227.367 248.762 218.89Z"/><defs><linearGradient id="gradient_6" gradientUnits="userSpaceOnUse" x1="292.94086" y1="169.65985" x2="305.66647" y2="252.58221"><stop offset="0" stop-color="#73D8F0"/><stop offset="1" stop-color="#C1E9F3"/></linearGradient></defs><path fill="url(#gradient_6)" d="M186.988 142.405C193.128 140.467 197.644 138.56 204.064 137.004C225.854 131.721 248.865 131.581 269.21 141.992C279.196 147.102 293.059 158.595 299.538 167.672C317.504 188.453 332.193 222.7 340.552 248.942C335.537 246.612 315.272 244.326 309.487 243.789C308.106 243.486 300.821 243.373 299.28 243.493L299.326 243.789C296.978 243.644 289.625 243.87 287.31 244.573L287.211 244.439C282.618 244.962 273.676 246.132 269.212 247.353C260.842 221.644 250.122 196.402 233.594 174.787C229.438 169.352 224.443 164.536 219.347 159.991C211.315 154.051 207.674 151.186 198.2 147.022L190.678 144.313C189.189 143.642 188.394 143.245 186.988 142.405Z"/><path fill="#5DCEEC" d="M186.988 142.405C193.128 140.467 197.644 138.56 204.064 137.004C225.854 131.721 248.865 131.581 269.21 141.992C279.196 147.102 293.059 158.595 299.538 167.672C299.446 168.95 299.047 171.914 297.836 172.496C291.871 175.365 284.788 176.226 278.335 177.514C277.034 177.773 275.869 180.043 274.381 180.613C271.939 179.194 270.102 173.344 264.444 174.958C263.069 175.35 261.83 175.828 260.742 176.801C260.597 177.373 260.467 177.904 260.297 178.471C258.906 178.174 255.033 172.822 253.888 173.453C250.903 170.977 248.133 168.396 245.037 166.008C231.651 155.514 216.023 148.252 199.37 144.788C198.459 145.052 198.294 144.914 197.897 145.516C198.207 146.32 198.411 146.395 198.2 147.022L190.678 144.313C189.189 143.642 188.394 143.245 186.988 142.405Z"/><path fill="#205BA4" d="M190.678 144.313C193.651 143.452 196.355 144.141 199.37 144.788C198.459 145.052 198.294 144.914 197.897 145.516C198.207 146.32 198.411 146.395 198.2 147.022L190.678 144.313Z"/><path fill="#205BA4" d="M199.37 144.788C216.023 148.252 231.651 155.514 245.037 166.008C248.133 168.396 250.903 170.977 253.888 173.453C271.062 190.225 281.354 206.216 292.026 227.846C294.453 232.766 296.911 238.891 299.28 243.493L299.326 243.789C296.978 243.644 289.625 243.87 287.31 244.573L287.211 244.439C282.618 244.962 273.676 246.132 269.212 247.353C260.842 221.644 250.122 196.402 233.594 174.787C229.438 169.352 224.443 164.536 219.347 159.991C211.315 154.051 207.674 151.186 198.2 147.022C198.411 146.395 198.207 146.32 197.897 145.516C198.294 144.914 198.459 145.052 199.37 144.788Z"/><defs><linearGradient id="gradient_7" gradientUnits="userSpaceOnUse" x1="264.25592" y1="175.80156" x2="244.99857" y2="238.65594"><stop offset="0" stop-color="#2273BA"/><stop offset="1" stop-color="#5E94C8"/></linearGradient></defs><path fill="url(#gradient_7)" d="M219.347 159.991C219.801 159.925 220.723 159.796 221.126 160.026C228.922 164.458 235.279 170.397 241.707 176.489C258.348 192.261 270.929 210.945 281.155 231.375C282.521 234.092 286.273 241.683 287.211 244.439C282.618 244.962 273.676 246.132 269.212 247.353C260.842 221.644 250.122 196.402 233.594 174.787C229.438 169.352 224.443 164.536 219.347 159.991Z"/><path d="M494.281 425.641L494.742 426.098C494.563 427.735 491.416 429.947 490.318 431.506C490.191 431.429 489.949 431.065 489.842 430.923C490.001 429.156 493.166 427.703 494.281 425.641Z"/><path d="M488.176 432.922L488.443 432.987L488.603 433.51C487.517 435.65 487.221 435.618 486.299 437.222L486.177 437.438L485.9 436.539C486.401 435.661 487.977 433.494 488.176 432.922Z"/><path d="M484.17 438.229L484.663 438.195L484.548 438.813C483.74 439.813 483.608 440.006 482.52 440.669L481.906 440.734L481.813 440.412C482.716 439.373 483.078 439.083 484.17 438.229Z"/><path d="M510.095 401.601C510.657 402.046 510.445 401.779 510.651 402.473C509.761 403.507 509.571 403.667 509.453 405.007C508.927 404.477 509.09 404.659 508.74 403.965C508.746 403.018 509.467 402.368 510.095 401.601Z"/><path d="M499.182 418.557C499.716 419.14 499.585 418.795 499.697 419.556C498.858 420.398 498.702 420.599 498.419 421.756L497.822 420.961C497.874 419.88 498.402 419.586 499.182 418.557Z"/><path d="M94.1488 111.141C94.447 111.054 94.2347 111.1 94.8002 111.132C94.6987 111.829 93.8527 112.565 93.299 113.195L93.0684 113.353L92.7578 112.786C92.9951 111.88 93.2802 111.903 94.1488 111.141Z"/><defs><linearGradient id="gradient_8" gradientUnits="userSpaceOnUse" x1="274.06503" y1="527.14001" x2="282.0722" y2="177.7747"><stop offset="0" stop-color="#181D71"/><stop offset="1" stop-color="#1B6AB4"/></linearGradient></defs><path fill="url(#gradient_8)" d="M38.408 156.726C42.614 161.04 50.1684 173.08 52.2458 178.717C49.0974 186.143 47.2716 192.254 45.058 200.096C28.0629 263.344 36.8891 330.752 69.5948 387.493C102.549 443.155 156.299 483.415 218.982 499.389C282.348 515.525 349.53 505.829 405.747 472.433C449.368 446.967 483.692 408.208 503.697 361.83C523.043 317.003 528.705 263.728 518.601 215.515C517.766 211.534 516.773 207.121 515.506 203.278C513.697 194.774 509.837 186.806 507.923 179.139C509.468 175.34 518.267 159.91 521.079 157.524L521.516 157.574C524.053 160.598 529.832 177.286 531.448 182.063C536.85 198.748 540.702 215.896 542.956 233.288C548.797 281.296 540.47 337.275 518.216 380.341C511.255 393.813 503.877 406.877 495.006 419.201C462.091 464.408 415.652 497.977 362.403 515.054C351.748 518.44 337.747 522.564 326.881 524.155C320.626 525.063 314.358 525.873 308.078 526.584C305.677 526.864 299.538 527.448 297.41 528L264.828 528C262.608 527.5 259.534 527.256 257.23 527.095C248.495 526.485 240.006 525.12 231.347 523.92C226.812 522.602 221.447 521.939 216.755 520.76C194.104 515.07 171.803 506.835 151.306 495.46C98.1397 465.936 56.7294 419.044 34.0075 362.635C15.7003 320.719 11.5698 263.106 19.4495 218.159C21.6598 205.552 25.2943 193.426 28.9796 181.195C30.7853 175.729 35.7439 161.795 38.408 156.726Z"/><path fill="#173483" d="M507.923 179.139C509.468 175.34 518.267 159.91 521.079 157.524L521.516 157.574C524.053 160.598 529.832 177.286 531.448 182.063C528.639 183.993 516.02 200.932 515.506 203.278C513.697 194.774 509.837 186.806 507.923 179.139Z"/><path fill="#173483" d="M38.408 156.726C42.614 161.04 50.1684 173.08 52.2458 178.717C49.0974 186.143 47.2716 192.254 45.058 200.096C44.9563 199.651 44.9523 199.559 44.5801 199.249C41.4278 196.626 32.4777 182.214 28.9796 181.195C30.7853 175.729 35.7439 161.795 38.408 156.726Z"/><path fill="#205BA4" d="M401.511 263.997C402.45 261.2 403.306 257.674 404.157 254.76C405.683 249.713 407.283 244.689 408.958 239.689C421.255 203.64 439.127 166.418 469.638 142.36C487.979 127.897 511.673 119.469 534.953 118.164C543.341 117.693 551.145 117.379 559.513 118.335L560 118.488L560 119.013C558.729 120.137 557.181 122.414 556.142 123.142C553.637 124.898 549.208 124.731 546.36 125.842C539.694 128.129 534.059 132.364 528.642 136.703C504.152 159.968 491.689 189.991 481.881 221.609C478.226 233.391 475.555 245.782 471.551 257.381C471.267 256.043 471.704 255.181 472.036 253.804C465.128 255.707 452.92 259.275 446.182 260.163C443.088 260.735 439.015 261.59 435.977 261.905L435.503 263.002L435.209 262.322C431.396 261.926 425.034 263.388 421.173 263.736C417.243 264.09 413.275 264.444 409.337 264.673C407.26 264.794 402.925 265.542 401.511 263.997Z"/><defs><linearGradient id="gradient_9" gradientUnits="userSpaceOnUse" x1="475.79724" y1="176.46146" x2="512.14514" y2="216.0083"><stop offset="0" stop-color="#70D4F0"/><stop offset="1" stop-color="#B9F2F8"/></linearGradient></defs><path fill="url(#gradient_9)" d="M559.513 118.335L560 118.488L560 119.013C558.729 120.137 557.181 122.414 556.142 123.142C553.637 124.898 549.208 124.731 546.36 125.842C539.694 128.129 534.059 132.364 528.642 136.703C504.152 159.968 491.689 189.991 481.881 221.609C478.226 233.391 475.555 245.782 471.551 257.381C471.267 256.043 471.704 255.181 472.036 253.804C465.128 255.707 452.92 259.275 446.182 260.163C443.088 260.735 439.015 261.59 435.977 261.905C437.205 257.913 438.924 253.42 440.356 249.423C443.836 239.443 447.695 229.6 451.925 219.914C454.101 214.92 458.281 205.576 461.091 200.979C462.434 197.794 465.483 192.771 467.246 189.691C478.3 170.385 493.581 151.86 512.374 139.677C514.682 138.181 517.618 136.152 520.02 134.91C525.657 131.177 540.602 123.975 546.942 122.674C550.686 121.548 555.551 119.634 559.513 118.335Z"/><path fill="#5DCEEC" d="M461.091 200.979C462.434 197.794 465.483 192.771 467.246 189.691C478.3 170.385 493.581 151.86 512.374 139.677C514.682 138.181 517.618 136.152 520.02 134.91L521.082 134.992C521.885 136.202 521.051 136.963 520.351 138.15L520.108 138.571C519.306 139.934 518.253 140.946 516.582 141.128C512.951 141.523 511.593 143.632 509.055 145.664C501.519 151.696 496.668 158.861 490.846 166.388C486.43 172.096 481.64 177.494 478.148 183.97C474.532 190.295 470.631 197.018 467.327 203.509C465.976 202.304 463.701 200.333 461.827 200.345L461.091 200.979Z"/><path fill="#EAF1F5" d="M559.513 118.335L560 118.488L560 119.013C558.729 120.137 557.181 122.414 556.142 123.142C553.637 124.898 549.208 124.731 546.36 125.842C539.694 128.129 534.059 132.364 528.642 136.703C529.001 134.525 538.627 128.033 541.05 126.83C543.654 125.538 544.736 124.56 546.942 122.674C550.686 121.548 555.551 119.634 559.513 118.335Z"/><path fill="#2A91CA" d="M446.182 260.163C452.92 259.275 465.128 255.707 472.036 253.804C471.704 255.181 471.267 256.043 471.551 257.381C470.14 262.951 468.553 268.478 467.158 274.059C458.122 310.226 451.915 347.896 436.322 381.999C434.802 385.324 432.591 390.254 430.552 393.212C429.887 395.748 421.622 406.871 419.854 410.089C407.297 402.46 395.76 384.007 389.484 370.949C386.43 364.327 379.205 349.481 377.789 343.211C379.721 338.639 381.557 333.273 383.101 328.523C390.015 307.256 395.208 285.458 401.511 263.997C402.925 265.542 407.26 264.794 409.337 264.673C413.275 264.444 417.243 264.09 421.173 263.736C425.034 263.388 431.396 261.926 435.209 262.322L435.503 263.002L435.977 261.905C439.015 261.59 443.088 260.735 446.182 260.163Z"/><defs><linearGradient id="gradient_10" gradientUnits="userSpaceOnUse" x1="421.57535" y1="322.45261" x2="381.46991" y2="295.98312"><stop offset="0" stop-color="#101760"/><stop offset="1" stop-color="#1D4A9E"/></linearGradient></defs><path fill="url(#gradient_10)" d="M401.511 263.997C402.925 265.542 407.26 264.794 409.337 264.673C413.275 264.444 417.243 264.09 421.173 263.736C425.034 263.388 431.396 261.926 435.209 262.322L435.503 263.002C433.263 269.347 431.455 275.749 429.372 282.139C426.553 290.584 423.659 299.003 420.691 307.396C418.532 311.786 416.884 318.016 414.89 322.618C409.836 334.285 403.976 348.506 397.68 359.468C395.579 362.364 392.255 369.399 389.484 370.949C386.43 364.327 379.205 349.481 377.789 343.211C379.721 338.639 381.557 333.273 383.101 328.523C390.015 307.256 395.208 285.458 401.511 263.997Z"/><path fill="#205BA4" d="M389.484 370.949C392.255 369.399 395.579 362.364 397.68 359.468C398.575 362.392 399.31 365.642 400.502 368.431C405.878 381.017 414.404 392.565 424.216 401.999C425.599 401.262 429.515 392.885 430.426 393.09L430.552 393.212C429.887 395.748 421.622 406.871 419.854 410.089C407.297 402.46 395.76 384.007 389.484 370.949Z"/><path fill="#5DCEEC" d="M435.977 261.905C439.015 261.59 443.088 260.735 446.182 260.163C442.161 265.047 438.549 283.25 435.433 289.966C435.095 290.695 434.306 293.161 434.119 293.97C433.43 292.417 439.704 277.925 439.522 275.386C439.384 275.324 439.245 275.262 439.106 275.2C437.1 276.017 434.557 275.42 432.777 274.284L432.399 274.356C429.788 282.539 427.063 290.684 424.224 298.79C423.552 300.728 421.834 306.213 421.015 307.622L420.691 307.396C423.659 299.003 426.553 290.584 429.372 282.139C431.455 275.749 433.263 269.347 435.503 263.002L435.977 261.905Z"/></svg>